<svg width="169" height="102" viewBox="0 0 169 102" fill="none" xmlns="http://www.w3.org/2000/svg">
    <path
        d="M4.3972 93.6278C4.72284 93.6278 5.00646 93.6278 5.24807 93.6488C5.48967 93.6698 5.71027 93.6908 5.90986 93.7223C6.10944 93.7539 6.31954 93.7959 6.54013 93.8484L6.44559 94.4367C6.21449 94.4052 5.9939 94.3841 5.80481 94.3631C5.61573 94.3526 5.40564 94.3316 5.18504 94.3211C4.96444 94.3106 4.70183 94.3001 4.3972 94.3001C3.81944 94.3001 3.36775 94.4156 3.0316 94.6362C2.69545 94.8568 2.45385 95.2245 2.31729 95.7287C2.18073 96.2329 2.10719 96.9263 2.10719 97.7981C2.10719 98.67 2.18073 99.3633 2.31729 99.8675C2.45385 100.372 2.69545 100.739 3.0316 100.96C3.36775 101.181 3.81944 101.296 4.3972 101.296C4.88041 101.296 5.29009 101.286 5.62623 101.265C5.96238 101.244 6.28802 101.202 6.61367 101.16L6.70821 101.737C6.38257 101.821 6.04642 101.884 5.69976 101.926C5.35311 101.968 4.92242 101.989 4.4077 101.989C3.65137 101.989 3.0421 101.853 2.5904 101.59C2.13871 101.317 1.80256 100.886 1.60297 100.277C1.40339 99.668 1.29834 98.8486 1.29834 97.8191C1.29834 96.7897 1.40339 95.9703 1.60297 95.3611C1.80256 94.7518 2.13871 94.3106 2.5904 94.048C3.0421 93.7749 3.65137 93.6488 4.4077 93.6488L4.3972 93.6278Z"
        fill="#707070" />
    <path
        d="M10.4584 96.0333C11.0886 96.0333 11.6034 96.1279 11.9815 96.3275C12.3597 96.527 12.6433 96.8422 12.8114 97.2729C12.9795 97.7141 13.0635 98.2918 13.0635 99.0166C13.0635 99.7415 12.9795 100.319 12.8114 100.76C12.6433 101.202 12.3702 101.517 11.9815 101.706C11.6034 101.905 11.0886 102 10.4584 102C9.82808 102 9.31336 101.905 8.93519 101.706C8.55703 101.506 8.2734 101.191 8.10533 100.76C7.93725 100.33 7.84271 99.7415 7.84271 99.0166C7.84271 98.2918 7.92675 97.7141 8.10533 97.2729C8.28391 96.8317 8.55703 96.5165 8.93519 96.3275C9.31336 96.1279 9.82808 96.0333 10.4584 96.0333ZM10.4584 96.6741C9.99616 96.6741 9.639 96.7476 9.36588 96.8842C9.10326 97.0208 8.91418 97.2624 8.79863 97.609C8.68308 97.9452 8.63056 98.4179 8.63056 99.0166C8.63056 99.6154 8.68308 100.078 8.79863 100.424C8.91418 100.771 9.10326 101.013 9.36588 101.149C9.62849 101.286 9.99616 101.359 10.4584 101.359C10.9206 101.359 11.2672 101.286 11.5403 101.149C11.8135 101.013 12.0025 100.771 12.1181 100.424C12.2336 100.078 12.2862 99.6154 12.2862 99.0166C12.2862 98.4179 12.2336 97.9452 12.1181 97.609C12.0025 97.2729 11.8135 97.0313 11.5403 96.8842C11.2672 96.7476 10.9101 96.6741 10.4584 96.6741Z"
        fill="#707070" />
    <path
        d="M15.364 96.1699L15.427 97.2519L15.49 97.4304V101.853H14.7547V96.1699H15.3745H15.364ZM18.0321 96.0333C19.0511 96.0333 19.5658 96.5481 19.5658 97.588V101.853H18.8305V97.7876C18.8305 97.3779 18.757 97.0943 18.5994 96.9262C18.4418 96.7581 18.1897 96.6741 17.8536 96.6741C17.4754 96.6741 17.0972 96.7687 16.7296 96.9472C16.3619 97.1258 15.9207 97.3779 15.4165 97.7036L15.385 97.1573C15.8472 96.8002 16.2989 96.5165 16.7401 96.3275C17.1813 96.1279 17.6119 96.0333 18.0426 96.0333H18.0321Z"
        fill="#707070" />
    <path
        d="M22.234 93.6593V96.0123C22.2445 96.2434 22.234 96.464 22.2235 96.6846C22.2025 96.8947 22.1815 97.0838 22.1499 97.2624L22.234 97.441V101.863H21.4987V93.6698H22.234V93.6593ZM24.7866 96.0333C25.8055 96.0333 26.3203 96.5481 26.3203 97.588V101.853H25.5744V97.7876C25.5744 97.3779 25.5009 97.0943 25.3433 96.9262C25.1963 96.7582 24.9442 96.6741 24.5975 96.6741C24.2193 96.6741 23.8412 96.7582 23.463 96.9367C23.0954 97.1153 22.6542 97.3674 22.1499 97.7036L22.1289 97.1573C22.5806 96.8107 23.0323 96.5376 23.4735 96.338C23.9147 96.1384 24.3559 96.0333 24.7866 96.0333Z"
        fill="#707070" />
    <path
        d="M30.5221 96.0333C31.331 96.0333 31.9297 96.1804 32.3079 96.4745C32.6861 96.7686 32.8751 97.2098 32.8857 97.7981C32.8857 98.3023 32.7911 98.691 32.5915 98.9641C32.3919 99.2372 32.0453 99.3738 31.5726 99.3738H28.2846V98.7855H31.415C31.6986 98.7855 31.8982 98.691 32.0033 98.5019C32.1083 98.3128 32.1503 98.0817 32.1398 97.7981C32.1398 97.3884 32.0033 97.1048 31.7512 96.9262C31.499 96.7476 31.0999 96.6636 30.5536 96.6636C30.1019 96.6636 29.7448 96.7371 29.4717 96.8737C29.209 97.0103 29.02 97.2519 28.9044 97.5775C28.7994 97.9137 28.7363 98.3654 28.7363 98.9326C28.7363 99.5629 28.7994 100.057 28.9359 100.403C29.0725 100.75 29.2826 100.992 29.5662 101.128C29.8498 101.265 30.2385 101.338 30.7007 101.338C31.0263 101.338 31.373 101.328 31.7301 101.296C32.0873 101.265 32.3919 101.233 32.6651 101.202L32.7491 101.706C32.581 101.769 32.3814 101.821 32.1188 101.863C31.8667 101.905 31.6041 101.937 31.331 101.958C31.0579 101.979 30.8162 101.989 30.6062 101.989C29.9654 101.989 29.4507 101.895 29.062 101.695C28.6733 101.496 28.3897 101.181 28.2111 100.739C28.0325 100.298 27.938 99.7204 27.938 98.9956C27.938 98.2708 28.022 97.6721 28.2006 97.2414C28.3792 96.8107 28.6523 96.506 29.0305 96.317C29.4086 96.1279 29.8918 96.0333 30.4906 96.0333H30.5221Z"
        fill="#707070" />
    <path
        d="M36.8774 96.0333C37.035 96.0333 37.2135 96.0333 37.4131 96.0543C37.6127 96.0753 37.8228 96.0964 38.0329 96.1279C38.243 96.1594 38.4426 96.2119 38.6212 96.2749L38.5161 96.7687C38.2745 96.7371 38.0119 96.7161 37.7178 96.6951C37.4236 96.6846 37.182 96.6741 36.9929 96.6741C36.4992 96.6741 36.1106 96.7476 35.8164 96.8842C35.5223 97.0208 35.3122 97.2624 35.1862 97.5985C35.0601 97.9347 34.9971 98.4074 34.9971 99.0061C34.9971 99.6049 35.0601 100.078 35.1862 100.424C35.3122 100.771 35.5223 101.013 35.8164 101.149C36.1106 101.286 36.4992 101.359 36.9929 101.359C37.1085 101.359 37.2661 101.359 37.4446 101.349C37.6232 101.338 37.8333 101.328 38.0434 101.317C38.2535 101.307 38.4531 101.275 38.6422 101.244L38.7367 101.748C38.4531 101.832 38.1484 101.895 37.8333 101.937C37.5077 101.979 37.182 102 36.8669 102C36.2261 102 35.7114 101.905 35.3227 101.706C34.934 101.506 34.6504 101.191 34.4718 100.76C34.2933 100.33 34.2092 99.7415 34.2092 99.0061C34.2092 98.2708 34.2933 97.7036 34.4718 97.2624C34.6504 96.8212 34.934 96.506 35.3227 96.317C35.7114 96.1279 36.2366 96.0333 36.8774 96.0333Z"
        fill="#707070" />
    <path
        d="M40.7641 93.7854C40.9322 93.7854 41.0057 93.8694 41.0057 94.027V94.7203C41.0057 94.8884 40.9217 94.9619 40.7641 94.9619H40.4174C40.2494 94.9619 40.1758 94.8779 40.1758 94.7203V94.027C40.1758 93.8589 40.2599 93.7854 40.4174 93.7854H40.7641ZM40.9532 96.1699V101.853H40.2284V96.1699H40.9532Z"
        fill="#707070" />
    <path
        d="M43.5794 96.1699L43.6424 97.2519L43.7159 97.4304V101.853H42.9806V96.1699H43.5899H43.5794ZM46.0164 96.0333C46.4891 96.0333 46.8568 96.1594 47.1194 96.422C47.382 96.6846 47.5081 97.0733 47.5081 97.588V101.853H46.7938V97.7876C46.7938 97.3884 46.7097 97.1048 46.5416 96.9367C46.3736 96.7686 46.1215 96.6741 45.7853 96.6741C45.5647 96.6741 45.3546 96.7056 45.1445 96.7792C44.9344 96.8527 44.7138 96.9577 44.4722 97.1153C44.2306 97.2624 43.947 97.462 43.6214 97.7036L43.5794 97.1678C43.9995 96.7897 44.4092 96.506 44.8084 96.317C45.2076 96.1279 45.6067 96.0333 46.0164 96.0333ZM49.8191 96.0333C50.3023 96.0333 50.67 96.1699 50.9326 96.4325C51.1952 96.6951 51.3212 97.0838 51.3212 97.588V101.853H50.5859V97.7876C50.5859 97.4094 50.4914 97.1258 50.3443 96.9472C50.1867 96.7687 49.9346 96.6741 49.588 96.6741C49.3569 96.6741 49.1468 96.7161 48.9367 96.7897C48.7266 96.8632 48.506 96.9787 48.2749 97.1258C48.0438 97.2729 47.7602 97.4725 47.445 97.7036L47.403 97.1678C47.8232 96.7897 48.2329 96.506 48.6426 96.317C49.0417 96.1279 49.4409 96.0333 49.8401 96.0333H49.8191Z"
        fill="#707070" />
    <path
        d="M55.4915 96.0333C56.3004 96.0333 56.8992 96.1804 57.2773 96.4745C57.6555 96.7686 57.8446 97.2098 57.8551 97.7981C57.8551 98.3023 57.7605 98.691 57.5609 98.9641C57.3614 99.2372 57.0147 99.3738 56.542 99.3738H53.2541V98.7855H56.3844C56.6681 98.7855 56.8676 98.691 56.9727 98.5019C57.0777 98.3128 57.1198 98.0817 57.1093 97.7981C57.1093 97.3884 56.9727 97.1048 56.7206 96.9262C56.4685 96.7476 56.0693 96.6636 55.5231 96.6636C55.0714 96.6636 54.7142 96.7371 54.4411 96.8737C54.1785 97.0103 53.9894 97.2519 53.8738 97.5775C53.7688 97.9137 53.7058 98.3654 53.7058 98.9326C53.7058 99.5629 53.7688 100.057 53.9054 100.403C54.0419 100.75 54.252 100.992 54.5356 101.128C54.8193 101.265 55.2079 101.338 55.6701 101.338C55.9958 101.338 56.3424 101.328 56.6996 101.296C57.0567 101.265 57.3614 101.233 57.6345 101.202L57.7185 101.706C57.5504 101.769 57.3509 101.821 57.0882 101.863C56.8361 101.905 56.5735 101.937 56.3004 101.958C56.0273 101.979 55.7857 101.989 55.5756 101.989C54.9348 101.989 54.4201 101.895 54.0314 101.695C53.6427 101.496 53.3591 101.181 53.1805 100.739C53.002 100.298 52.9074 99.7204 52.9074 98.9956C52.9074 98.2708 52.9914 97.6721 53.17 97.2414C53.3486 96.8107 53.6217 96.506 53.9999 96.317C54.3781 96.1279 54.8613 96.0333 55.46 96.0333H55.4915Z"
        fill="#707070" />
    <path
        d="M60.103 96.1699L60.1661 97.2519L60.2291 97.4304V101.853H59.4938V96.1699H60.1135H60.103ZM62.7712 96.0333C63.7901 96.0333 64.3049 96.5481 64.3049 97.588V101.853H63.5696V97.7876C63.5696 97.3779 63.496 97.0943 63.3385 96.9262C63.1809 96.7581 62.9288 96.6741 62.5926 96.6741C62.2145 96.6741 61.8363 96.7687 61.4686 96.9472C61.101 97.1258 60.6598 97.3779 60.1556 97.7036L60.124 97.1573C60.5863 96.8002 61.0379 96.5165 61.4791 96.3275C61.9203 96.1279 62.351 96.0333 62.7817 96.0333H62.7712Z"
        fill="#707070" />
    <path
        d="M69.2841 96.1699V96.7792H65.597V96.2329L66.7105 96.1699H69.2841ZM67.3618 94.4576V100.435C67.3618 100.729 67.4248 100.939 67.5718 101.065C67.7084 101.202 67.9185 101.265 68.2021 101.265H69.1265L69.2211 101.811C69.1055 101.842 68.969 101.863 68.8219 101.884C68.6748 101.905 68.5278 101.916 68.3807 101.926C68.2441 101.926 68.1286 101.937 68.0446 101.937C67.5824 101.937 67.2357 101.811 66.9941 101.569C66.7525 101.328 66.6369 100.981 66.6369 100.519V94.4576H67.3723H67.3618Z"
        fill="#707070" />
    <path
        d="M72.8872 96.0333C73.5175 96.0333 74.0322 96.1279 74.4104 96.3275C74.7885 96.527 75.0721 96.8422 75.2402 97.2729C75.4083 97.7141 75.4923 98.2918 75.4923 99.0166C75.4923 99.7415 75.4083 100.319 75.2402 100.76C75.0721 101.202 74.799 101.517 74.4104 101.706C74.0322 101.905 73.5175 102 72.8872 102C72.2569 102 71.7422 101.905 71.364 101.706C70.9859 101.506 70.7022 101.191 70.5342 100.76C70.3661 100.33 70.2715 99.7415 70.2715 99.0166C70.2715 98.2918 70.3556 97.7141 70.5342 97.2729C70.7127 96.8317 70.9859 96.5165 71.364 96.3275C71.7422 96.1279 72.2569 96.0333 72.8872 96.0333ZM72.8872 96.6741C72.425 96.6741 72.0678 96.7476 71.7947 96.8842C71.5321 97.0208 71.343 97.2624 71.2275 97.609C71.1119 97.9452 71.0594 98.4179 71.0594 99.0166C71.0594 99.6154 71.1119 100.078 71.2275 100.424C71.343 100.771 71.5321 101.013 71.7947 101.149C72.0573 101.286 72.425 101.359 72.8872 101.359C73.3494 101.359 73.696 101.286 73.9692 101.149C74.2423 101.013 74.4314 100.771 74.5469 100.424C74.6625 100.078 74.715 99.6154 74.715 99.0166C74.715 98.4179 74.6625 97.9452 74.5469 97.609C74.4314 97.2729 74.2423 97.0313 73.9692 96.8842C73.696 96.7476 73.3389 96.6741 72.8872 96.6741Z"
        fill="#707070" />
    <path
        d="M82.5829 93.7749C82.6564 93.7749 82.7195 93.7959 82.772 93.8379C82.835 93.8799 82.8665 93.9325 82.8876 94.006L85.5977 101.863H84.7994L82.5304 95.0459C82.4989 94.9409 82.4674 94.8254 82.4254 94.7098C82.3833 94.5943 82.3518 94.4892 82.3203 94.3842H81.9842C81.9526 94.4892 81.9211 94.5943 81.8896 94.7098C81.8581 94.8254 81.8161 94.9304 81.7741 95.0459L79.5051 101.863H78.7067L81.4169 94.006C81.4379 93.9325 81.4799 93.8799 81.5325 93.8379C81.585 93.7959 81.648 93.7749 81.7215 93.7749H82.6039H82.5829ZM84.1901 98.502V99.1743H80.0933V98.502H84.1901Z"
        fill="#707070" />
    <path
        d="M87.4465 93.6593V95.9283C87.4465 96.1699 87.4465 96.38 87.436 96.5691C87.436 96.7582 87.4045 96.9472 87.3625 97.1468L87.436 97.3254V101.632L86.7112 101.601V93.6593H87.4465ZM89.621 96.0333C90.3353 96.0333 90.8605 96.2644 91.1861 96.7161C91.5118 97.1678 91.6693 97.9347 91.6693 99.0061C91.6693 99.5104 91.6273 99.9516 91.5433 100.33C91.4593 100.708 91.3227 101.013 91.1441 101.265C90.955 101.506 90.7029 101.695 90.3983 101.811C90.0832 101.937 89.6945 101.989 89.2428 101.989C89.0432 101.989 88.8436 101.989 88.623 101.968C88.4129 101.947 88.1923 101.926 87.9717 101.895C87.7511 101.863 87.541 101.821 87.3205 101.769C87.1104 101.727 86.9003 101.664 86.7007 101.59L87.2994 101.086C87.5305 101.149 87.7616 101.202 87.9822 101.244C88.2028 101.286 88.4129 101.317 88.6125 101.328C88.8121 101.338 89.0222 101.349 89.2218 101.349C89.6315 101.349 89.9571 101.275 90.1987 101.128C90.4403 100.981 90.6189 100.729 90.7344 100.393C90.8395 100.046 90.9025 99.5839 90.9025 99.0061C90.9025 98.4284 90.8605 97.9767 90.766 97.6405C90.6714 97.3044 90.5244 97.0523 90.3038 96.9052C90.0832 96.7582 89.7785 96.6846 89.3899 96.6846C89.0642 96.6846 88.7386 96.7792 88.4339 96.9577C88.1293 97.1363 87.7721 97.3884 87.3625 97.7141L87.3205 97.1888C87.5726 96.9367 87.8247 96.7266 88.0663 96.5586C88.3184 96.3905 88.5705 96.2644 88.8331 96.1699C89.0957 96.0754 89.3583 96.0333 89.621 96.0333Z"
        fill="#707070" />
    <path
        d="M95.6191 96.0333C96.4279 96.0333 97.0267 96.1804 97.4049 96.4745C97.7831 96.7686 97.9721 97.2098 97.9826 97.7981C97.9826 98.3023 97.8881 98.691 97.6885 98.9641C97.4889 99.2372 97.1423 99.3738 96.6696 99.3738H93.3816V98.7855H96.512C96.7956 98.7855 96.9952 98.691 97.1002 98.5019C97.2053 98.3128 97.2473 98.0817 97.2368 97.7981C97.2368 97.3884 97.1003 97.1048 96.8481 96.9262C96.596 96.7476 96.1969 96.6636 95.6506 96.6636C95.1989 96.6636 94.8418 96.7371 94.5686 96.8737C94.306 97.0103 94.1169 97.2519 94.0014 97.5775C93.8963 97.9137 93.8333 98.3654 93.8333 98.9326C93.8333 99.5629 93.8963 100.057 94.0329 100.403C94.1695 100.75 94.3796 100.992 94.6632 101.128C94.9468 101.265 95.3355 101.338 95.7977 101.338C96.1233 101.338 96.47 101.328 96.8271 101.296C97.1843 101.265 97.4889 101.233 97.762 101.202L97.8461 101.706C97.678 101.769 97.4784 101.821 97.2158 101.863C96.9637 101.905 96.7011 101.937 96.428 101.958C96.1548 101.979 95.9132 101.989 95.7031 101.989C95.0624 101.989 94.5476 101.895 94.159 101.695C93.7703 101.496 93.4867 101.181 93.3081 100.739C93.1295 100.298 93.035 99.7204 93.035 98.9956C93.035 98.2708 93.119 97.6721 93.2976 97.2414C93.4762 96.8107 93.7493 96.506 94.1275 96.317C94.5056 96.1279 94.9888 96.0333 95.5876 96.0333H95.6191Z"
        fill="#707070" />
    <path
        d="M100.168 96.1699L100.262 97.2519L100.336 97.4304V101.853H99.6003V96.1699H100.178H100.168ZM103.004 96.0333L102.909 96.7371H102.626C102.258 96.7371 101.901 96.8212 101.544 96.9787C101.187 97.1363 100.756 97.3674 100.262 97.6615L100.199 97.1678C100.64 96.8212 101.071 96.5376 101.502 96.338C101.932 96.1384 102.353 96.0333 102.752 96.0333H102.993H103.004Z"
        fill="#707070" />
    <path
        d="M107.269 96.1699V96.7792H103.582V96.2329L104.695 96.1699H107.269ZM105.346 94.4576V100.435C105.346 100.729 105.409 100.939 105.556 101.065C105.693 101.202 105.903 101.265 106.187 101.265H107.111L107.206 101.811C107.09 101.842 106.954 101.863 106.807 101.884C106.659 101.905 106.512 101.916 106.365 101.926C106.229 101.926 106.113 101.937 106.029 101.937C105.567 101.937 105.22 101.811 104.979 101.569C104.737 101.328 104.622 100.981 104.622 100.519V94.4576H105.357H105.346Z"
        fill="#707070" />
    <path
        d="M110.872 96.0333C111.502 96.0333 112.017 96.1279 112.395 96.3275C112.773 96.527 113.057 96.8422 113.225 97.2729C113.393 97.7141 113.477 98.2918 113.477 99.0166C113.477 99.7415 113.393 100.319 113.225 100.76C113.057 101.202 112.784 101.517 112.395 101.706C112.017 101.905 111.502 102 110.872 102C110.242 102 109.727 101.905 109.349 101.706C108.97 101.506 108.687 101.191 108.519 100.76C108.351 100.33 108.256 99.7415 108.256 99.0166C108.256 98.2918 108.34 97.7141 108.519 97.2729C108.697 96.8317 108.97 96.5165 109.349 96.3275C109.727 96.1279 110.242 96.0333 110.872 96.0333ZM110.872 96.6741C110.41 96.6741 110.052 96.7476 109.779 96.8842C109.517 97.0208 109.328 97.2624 109.212 97.609C109.097 97.9452 109.044 98.4179 109.044 99.0166C109.044 99.6154 109.097 100.078 109.212 100.424C109.328 100.771 109.517 101.013 109.779 101.149C110.042 101.286 110.41 101.359 110.872 101.359C111.334 101.359 111.681 101.286 111.954 101.149C112.227 101.013 112.416 100.771 112.532 100.424C112.647 100.078 112.7 99.6154 112.7 99.0166C112.7 98.4179 112.647 97.9452 112.532 97.609C112.416 97.2729 112.227 97.0313 111.954 96.8842C111.681 96.7476 111.323 96.6741 110.872 96.6741Z"
        fill="#707070" />
    <path
        d="M120.053 96.0333C120.862 96.0333 121.46 96.1804 121.839 96.4745C122.217 96.7686 122.406 97.2098 122.416 97.7981C122.416 98.3023 122.322 98.691 122.122 98.9641C121.923 99.2372 121.576 99.3738 121.103 99.3738H117.815V98.7855H120.946C121.229 98.7855 121.429 98.691 121.534 98.5019C121.639 98.3128 121.681 98.0817 121.671 97.7981C121.671 97.3884 121.534 97.1048 121.282 96.9262C121.03 96.7476 120.631 96.6636 120.084 96.6636C119.633 96.6636 119.275 96.7371 119.002 96.8737C118.74 97.0103 118.551 97.2519 118.435 97.5775C118.33 97.9137 118.267 98.3654 118.267 98.9326C118.267 99.5629 118.33 100.057 118.467 100.403C118.603 100.75 118.813 100.992 119.097 101.128C119.381 101.265 119.769 101.338 120.231 101.338C120.557 101.338 120.904 101.328 121.261 101.296C121.618 101.265 121.923 101.233 122.196 101.202L122.28 101.706C122.112 101.769 121.912 101.821 121.65 101.863C121.397 101.905 121.135 101.937 120.862 101.958C120.589 101.979 120.347 101.989 120.137 101.989C119.496 101.989 118.981 101.895 118.593 101.695C118.204 101.496 117.92 101.181 117.742 100.739C117.563 100.298 117.469 99.7204 117.469 98.9956C117.469 98.2708 117.553 97.6721 117.731 97.2414C117.91 96.8107 118.183 96.506 118.561 96.317C118.939 96.1279 119.423 96.0333 120.021 96.0333H120.053Z"
        fill="#707070" />
    <path
        d="M124.643 96.1699L124.706 97.2519L124.78 97.4304V101.853H124.045V96.1699H124.654H124.643ZM127.08 96.0333C127.553 96.0333 127.921 96.1594 128.183 96.422C128.446 96.6846 128.572 97.0733 128.572 97.588V101.853H127.858V97.7876C127.858 97.3884 127.774 97.1048 127.606 96.9367C127.438 96.7686 127.185 96.6741 126.849 96.6741C126.629 96.6741 126.419 96.7056 126.208 96.7792C125.998 96.8527 125.778 96.9577 125.536 97.1153C125.295 97.2624 125.011 97.462 124.685 97.7036L124.643 97.1678C125.063 96.7897 125.473 96.506 125.872 96.317C126.272 96.1279 126.671 96.0333 127.08 96.0333ZM130.883 96.0333C131.366 96.0333 131.734 96.1699 131.997 96.4325C132.259 96.6951 132.385 97.0838 132.385 97.588V101.853H131.65V97.7876C131.65 97.4094 131.555 97.1258 131.408 96.9472C131.251 96.7687 130.999 96.6741 130.652 96.6741C130.421 96.6741 130.211 96.7161 130.001 96.7897C129.791 96.8632 129.57 96.9787 129.339 97.1258C129.108 97.2729 128.824 97.4725 128.509 97.7036L128.467 97.1678C128.887 96.7897 129.297 96.506 129.707 96.317C130.106 96.1279 130.505 96.0333 130.904 96.0333H130.883Z"
        fill="#707070" />
    <path
        d="M139.203 93.6278C139.581 93.6278 139.969 93.6593 140.358 93.6908C140.747 93.7223 141.135 93.7749 141.524 93.8379L141.461 94.4052C141.114 94.3841 140.747 94.3631 140.358 94.3421C139.969 94.3316 139.591 94.3211 139.224 94.3211C138.909 94.3211 138.625 94.3316 138.394 94.3526C138.163 94.3736 137.974 94.4261 137.827 94.5207C137.679 94.6047 137.574 94.7518 137.501 94.9409C137.438 95.1405 137.406 95.4136 137.406 95.7602C137.406 96.2645 137.49 96.6111 137.669 96.8212C137.837 97.0313 138.121 97.1679 138.52 97.2519L140.222 97.5985C140.831 97.7246 141.251 97.9662 141.493 98.3128C141.734 98.6595 141.85 99.1637 141.85 99.815C141.85 100.288 141.797 100.676 141.682 100.96C141.577 101.244 141.409 101.464 141.199 101.611C140.988 101.758 140.715 101.863 140.39 101.916C140.064 101.968 139.675 102 139.234 102C138.951 102 138.604 101.989 138.194 101.968C137.785 101.947 137.312 101.895 136.776 101.8L136.839 101.233C137.238 101.244 137.574 101.265 137.837 101.275C138.11 101.286 138.352 101.296 138.572 101.296C138.793 101.296 139.024 101.296 139.266 101.296C139.717 101.296 140.075 101.254 140.348 101.181C140.61 101.107 140.799 100.971 140.915 100.76C141.03 100.55 141.083 100.225 141.083 99.8045C141.083 99.4579 141.041 99.1742 140.967 98.9746C140.894 98.7751 140.768 98.628 140.6 98.523C140.432 98.4179 140.211 98.3444 139.948 98.2918L138.226 97.9242C137.648 97.8086 137.238 97.567 137.007 97.2204C136.766 96.8632 136.65 96.38 136.65 95.7497C136.65 95.277 136.703 94.8884 136.808 94.6047C136.913 94.3211 137.07 94.111 137.28 93.9639C137.49 93.8274 137.753 93.7329 138.068 93.6908C138.383 93.6488 138.772 93.6278 139.203 93.6278Z"
        fill="#707070" />
    <path
        d="M147.564 98.3864V98.9536L144.781 98.9746C144.486 98.9746 144.266 99.0586 144.129 99.2162C143.993 99.3633 143.919 99.5839 143.919 99.857V100.351C143.919 100.666 144.003 100.907 144.161 101.065C144.329 101.223 144.571 101.296 144.907 101.296C145.159 101.296 145.432 101.265 145.737 101.17C146.041 101.076 146.335 100.939 146.629 100.76C146.924 100.582 147.186 100.372 147.417 100.13V100.708C147.323 100.823 147.186 100.949 147.018 101.097C146.84 101.233 146.64 101.37 146.409 101.506C146.178 101.643 145.926 101.748 145.652 101.832C145.379 101.916 145.085 101.958 144.791 101.958C144.465 101.958 144.182 101.895 143.94 101.779C143.699 101.664 143.51 101.485 143.373 101.254C143.236 101.023 143.163 100.739 143.163 100.414V99.7625C143.163 99.3213 143.289 98.9851 143.552 98.754C143.814 98.5124 144.182 98.3969 144.655 98.3969H147.554L147.564 98.3864ZM146.136 96.0333C146.524 96.0333 146.861 96.0859 147.123 96.2014C147.396 96.317 147.596 96.4955 147.743 96.7476C147.879 96.9998 147.953 97.3464 147.953 97.7771V101.853H147.365L147.249 100.613L147.207 100.508V97.7771C147.207 97.4199 147.123 97.1468 146.955 96.9577C146.787 96.7687 146.472 96.6741 145.999 96.6741C145.652 96.6741 145.253 96.6951 144.802 96.7161C144.35 96.7371 143.909 96.7897 143.478 96.8317L143.405 96.2854C143.667 96.2434 143.951 96.2014 144.245 96.1594C144.539 96.1279 144.854 96.0964 145.169 96.0648C145.484 96.0333 145.81 96.0228 146.125 96.0228L146.136 96.0333Z"
        fill="#707070" />
    <path
        d="M150.569 96.1699V100.246C150.569 100.634 150.642 100.918 150.81 101.086C150.978 101.254 151.241 101.349 151.609 101.349C151.976 101.349 152.302 101.265 152.649 101.086C152.985 100.918 153.394 100.666 153.878 100.351L153.962 100.886C153.51 101.254 153.069 101.527 152.649 101.716C152.228 101.905 151.798 102 151.367 102C150.348 102 149.833 101.485 149.833 100.445V96.1699H150.569ZM153.384 93.2706L153.825 93.8484L151.745 95.34L151.462 94.9934L153.384 93.2811V93.2706ZM154.529 96.1699V101.853H153.941L153.867 100.792L153.783 100.613V96.1804H154.518L154.529 96.1699Z"
        fill="#707070" />
    <path
        d="M158.353 96.0333C158.731 96.0333 159.098 96.0859 159.477 96.1804C159.855 96.2854 160.222 96.4325 160.58 96.6216L160.548 97.1153C160.138 96.9787 159.781 96.8737 159.477 96.8002C159.172 96.7267 158.846 96.6846 158.51 96.6846C158.153 96.6846 157.859 96.7582 157.638 96.8947C157.418 97.0313 157.25 97.2624 157.155 97.5985C157.05 97.9347 157.008 98.3969 157.008 98.9956C157.008 99.5944 157.061 100.057 157.155 100.393C157.26 100.729 157.418 100.971 157.628 101.118C157.838 101.265 158.121 101.338 158.468 101.338C158.71 101.338 158.93 101.307 159.13 101.244C159.329 101.181 159.54 101.065 159.771 100.918C160.002 100.771 160.254 100.582 160.559 100.372L160.622 100.939C160.275 101.254 159.897 101.506 159.508 101.706C159.119 101.905 158.699 102 158.269 102C157.554 102 157.04 101.758 156.724 101.265C156.409 100.781 156.252 100.025 156.252 99.0061C156.252 98.2708 156.325 97.6931 156.483 97.2519C156.63 96.8212 156.861 96.506 157.176 96.317C157.481 96.1279 157.88 96.0333 158.374 96.0333H158.353ZM161.189 93.6593V101.853H160.611L160.517 100.855L160.443 100.781V96.8632L160.506 96.6846C160.474 96.464 160.453 96.2644 160.453 96.0754C160.453 95.8863 160.453 95.6867 160.453 95.4661V93.6488H161.189V93.6593Z"
        fill="#707070" />
    <path
        d="M165.422 96.0333C166.231 96.0333 166.83 96.1804 167.208 96.4745C167.586 96.7686 167.775 97.2098 167.786 97.7981C167.786 98.3023 167.691 98.691 167.492 98.9641C167.292 99.2372 166.945 99.3738 166.473 99.3738H163.185V98.7855H166.315C166.599 98.7855 166.798 98.691 166.903 98.5019C167.008 98.3128 167.05 98.0817 167.04 97.7981C167.04 97.3884 166.903 97.1048 166.651 96.9262C166.399 96.7476 166 96.6636 165.454 96.6636C165.002 96.6636 164.645 96.7371 164.372 96.8737C164.109 97.0103 163.92 97.2519 163.804 97.5775C163.699 97.9137 163.636 98.3654 163.636 98.9326C163.636 99.5629 163.699 100.057 163.836 100.403C163.973 100.75 164.183 100.992 164.466 101.128C164.75 101.265 165.139 101.338 165.601 101.338C165.926 101.338 166.273 101.328 166.63 101.296C166.987 101.265 167.292 101.233 167.565 101.202L167.649 101.706C167.481 101.769 167.281 101.821 167.019 101.863C166.767 101.905 166.504 101.937 166.231 101.958C165.958 101.979 165.716 101.989 165.506 101.989C164.865 101.989 164.351 101.895 163.962 101.695C163.573 101.496 163.29 101.181 163.111 100.739C162.933 100.298 162.838 99.7204 162.838 98.9956C162.838 98.2708 162.922 97.6721 163.101 97.2414C163.279 96.8107 163.552 96.506 163.931 96.317C164.309 96.1279 164.792 96.0333 165.391 96.0333H165.422Z"
        fill="#707070" />
    <path
        d="M103.54 67.9126C102.037 67.3243 100.042 66.7256 97.6045 66.1478C95.7451 65.7171 94.264 65.3179 93.1925 64.9398C92.1631 64.5721 91.2912 64.0574 90.6084 63.4166C89.9571 62.7968 89.642 62.009 89.642 61.0006C89.642 59.4774 90.3248 58.3114 91.7324 57.4605C93.182 56.5781 95.1149 56.1369 97.4574 56.1369C99.9575 56.1369 102.405 56.5466 104.737 57.3555C105.094 57.5025 105.378 57.5656 105.619 57.5656C106.292 57.5656 106.838 57.3134 107.258 56.8302C107.657 56.3575 107.857 55.8218 107.857 55.244C107.857 54.1621 107.321 53.3952 106.313 53.0381C103.55 52.0086 100.409 51.4939 97.0057 51.4939C94.4426 51.4939 92.2051 51.9351 90.3668 52.7965C88.5075 53.6683 87.0789 54.8659 86.1229 56.347C85.167 57.8387 84.6733 59.5089 84.6733 61.3262C84.6733 63.4166 85.2616 65.1184 86.4381 66.3894C87.5831 67.629 88.9592 68.5639 90.5454 69.1836C92.0895 69.7824 94.1379 70.4232 96.6275 71.064C98.4763 71.5472 99.926 71.9779 100.934 72.3245C101.89 72.6607 102.71 73.1229 103.361 73.7006C103.97 74.2469 104.264 74.8981 104.264 75.7175C104.264 79.0264 101.754 80.6336 96.5855 80.6336C93.4236 80.6336 90.4193 80.0139 87.6566 78.7743C87.331 78.6273 86.9843 78.5537 86.6272 78.5537C85.9654 78.5537 85.4086 78.7848 84.9779 79.2575C84.5578 79.7092 84.3477 80.266 84.3477 80.8858C84.3477 81.369 84.4947 81.8207 84.7889 82.2409C85.0725 82.6505 85.4401 82.9552 85.8813 83.1337C89.3268 84.6254 93.0665 85.3817 97.0057 85.3817C99.3797 85.3817 101.512 84.9826 103.34 84.1947C105.178 83.4069 106.628 82.2829 107.647 80.8647C108.676 79.4361 109.191 77.7974 109.191 76.0011C109.191 73.8267 108.624 72.0619 107.51 70.7698C106.418 69.4988 105.073 68.5429 103.529 67.9441L103.54 67.9126Z"
        fill="#707070" />
    <path
        d="M137.448 51.704C136.755 51.704 136.167 51.9561 135.694 52.4498C135.221 52.933 134.99 53.5318 134.99 54.2146V72.5661C134.99 74.3204 134.581 75.833 133.782 77.0516C132.984 78.2701 131.912 79.205 130.599 79.8143C129.276 80.434 127.837 80.7492 126.335 80.7492C124.832 80.7492 123.393 80.434 122.07 79.8143C120.757 79.205 119.685 78.2701 118.887 77.0516C118.088 75.833 117.679 74.3204 117.679 72.5661V54.2146C117.679 53.5213 117.427 52.933 116.943 52.4393C116.46 51.9456 115.861 51.704 115.168 51.704C114.475 51.704 113.887 51.9561 113.414 52.4498C112.941 52.933 112.71 53.5318 112.71 54.2146V72.4295C112.71 75.2343 113.382 77.6398 114.716 79.5832C116.04 81.5265 117.773 82.9867 119.853 83.9321C121.923 84.8775 124.108 85.3502 126.335 85.3502C128.562 85.3502 130.746 84.8775 132.816 83.9321C134.896 82.9867 136.629 81.516 137.953 79.5832C139.287 77.6398 139.959 75.2238 139.959 72.4295V54.2146C139.959 53.5213 139.707 52.933 139.224 52.4393C138.73 51.9456 138.142 51.704 137.448 51.704Z"
        fill="#707070" />
    <path
        d="M166.83 70.7383C165.737 69.4673 164.393 68.5113 162.849 67.9126C161.346 67.3243 159.35 66.7256 156.913 66.1478C155.054 65.7171 153.573 65.3179 152.501 64.9398C151.472 64.5721 150.6 64.0574 149.917 63.4166C149.266 62.7968 148.951 62.009 148.951 61.0006C148.951 59.4774 149.634 58.3114 151.041 57.4605C152.491 56.5781 154.424 56.1369 156.766 56.1369C159.266 56.1369 161.714 56.5466 164.046 57.3555C164.403 57.5025 164.687 57.5656 164.928 57.5656C165.601 57.5656 166.147 57.3134 166.567 56.8302C166.966 56.3575 167.166 55.8218 167.166 55.244C167.166 54.1621 166.63 53.3952 165.622 53.0381C162.859 52.0086 159.718 51.4939 156.315 51.4939C153.752 51.4939 151.514 51.9351 149.676 52.7965C147.816 53.6683 146.388 54.8659 145.432 56.347C144.476 57.8387 143.982 59.5089 143.982 61.3262C143.982 63.4166 144.571 65.1184 145.747 66.3894C146.892 67.629 148.268 68.5639 149.854 69.1836C151.398 69.7824 153.447 70.4232 155.936 71.064C157.785 71.5472 159.235 71.9779 160.243 72.3245C161.199 72.6607 162.019 73.1229 162.67 73.7006C163.279 74.2469 163.573 74.8981 163.573 75.7175C163.573 79.0264 161.063 80.6336 155.894 80.6336C152.733 80.6336 149.728 80.0139 146.966 78.7743C146.64 78.6273 146.293 78.5537 145.936 78.5537C145.274 78.5537 144.718 78.7848 144.287 79.2575C143.867 79.7092 143.657 80.266 143.657 80.8858C143.657 81.369 143.804 81.8207 144.098 82.2409C144.381 82.6505 144.749 82.9552 145.19 83.1337C148.636 84.6254 152.375 85.3817 156.315 85.3817C158.689 85.3817 160.821 84.9826 162.649 84.1947C164.487 83.4069 165.937 82.2829 166.956 80.8647C167.985 79.4361 168.5 77.7974 168.5 76.0011C168.5 73.8267 167.933 72.0619 166.819 70.7698L166.83 70.7383Z"
        fill="#707070" />
    <path
        d="M56.563 55.4016C56.6786 55.0865 56.7416 54.7504 56.7416 54.3932C56.7416 53.5844 56.5 52.9121 56.0063 52.4078C55.5126 51.8931 54.8403 51.6305 54.0209 51.6305C53.4537 51.6305 52.9285 51.8091 52.4663 52.1452C52.0251 52.4709 51.6784 52.9121 51.4578 53.4373L41.4784 78.3227L31.5096 53.4583C31.2785 52.9121 30.9423 52.4709 30.4906 52.1452C30.0284 51.7986 29.5032 51.6305 28.936 51.6305C28.1166 51.6305 27.4443 51.8931 26.9506 52.4078C26.4674 52.9121 26.2153 53.5844 26.2153 54.3932C26.2153 54.7504 26.2783 55.0865 26.3938 55.4016L37.5497 82.4615V82.4825C38.4951 84.5309 39.9343 84.9616 40.9847 84.9616H41.9827C43.0331 84.9616 44.4723 84.5309 45.4072 82.4825L56.563 55.4227V55.4016Z"
        fill="#F5303F" />
    <path
        d="M82.2678 81.2009L71.1119 54.1411V54.1201C70.1665 52.0717 68.7273 51.641 67.6769 51.641H66.6789C65.6285 51.641 64.1894 52.0717 63.2545 54.1201L52.0986 81.1799V81.2009C51.9725 81.5161 51.9095 81.8522 51.9095 82.2094C51.9095 83.0182 52.1511 83.6905 52.6448 84.1947C53.1385 84.7095 53.8108 84.9721 54.6302 84.9721C55.1974 84.9721 55.7227 84.7935 56.1849 84.4574C56.626 84.1317 56.9727 83.6905 57.1933 83.1653L67.1727 58.2799L73.1603 73.2174L77.1415 83.1443C77.194 83.2913 77.2571 83.4174 77.3306 83.5329C77.5407 83.9006 77.8243 84.2052 78.15 84.4574C78.6122 84.804 79.1374 84.9721 79.7046 84.9721C80.524 84.9721 81.1963 84.7095 81.69 84.1947C82.1732 83.6905 82.4253 83.0182 82.4253 82.2094C82.4253 81.8522 82.3623 81.5161 82.2468 81.2009H82.2678Z"
        fill="#F5303F" />
    <path
        d="M30.8583 81.2009L19.7024 54.1411V54.1201C18.757 52.0717 17.3179 51.641 16.2674 51.641H15.2695C14.219 51.641 12.7799 52.0717 11.845 54.1201L0.689079 81.1799V81.2009C0.563024 81.5161 0.5 81.8522 0.5 82.2094C0.5 83.0182 0.741603 83.6905 1.23532 84.1947C1.72903 84.7095 2.40133 84.9721 3.22069 84.9721C3.78794 84.9721 4.31317 84.7935 4.77537 84.4574C5.21656 84.1317 5.56321 83.6905 5.78381 83.1653L15.7632 58.2799L21.7508 73.2174L25.732 83.1443C25.8056 83.3229 25.8896 83.4699 25.9736 83.617C26.1837 83.9426 26.4358 84.2263 26.7405 84.4574C27.2027 84.804 27.7279 84.9721 28.2952 84.9721C29.1145 84.9721 29.7868 84.7095 30.2805 84.1947C30.7637 83.6905 31.0159 83.0182 31.0159 82.2094C31.0159 81.8522 30.9528 81.5161 30.8373 81.2009H30.8583Z"
        fill="#F5303F" />
    <path
        d="M78.8013 26.1673C80.5976 26.1673 82.0472 24.7177 82.0472 22.9214V3.47737C82.0472 1.68108 80.5976 0.231445 78.8013 0.231445C77.005 0.231445 75.5554 1.68108 75.5554 3.47737V22.9214C75.5554 24.7177 77.005 26.1673 78.8013 26.1673Z"
        fill="url(#paint0_linear_441_48184)" />
    <path
        d="M115.389 21.7239L108.067 18.7931H108.015L77.7823 30.9154H77.7613C77.11 31.199 76.5848 31.6192 76.1856 32.1549C75.7654 32.7222 75.5554 33.363 75.5554 34.0458C75.5554 35.0437 75.8705 35.8631 76.5008 36.4618C77.1205 37.0501 77.9294 37.3547 78.9168 37.3547C79.3475 37.3547 79.7572 37.2812 80.1459 37.1341L113.057 23.5622H113.088C114.223 23.0264 114.948 22.3857 115.399 21.7134L115.389 21.7239Z"
        fill="url(#paint1_linear_441_48184)" />
    <path
        d="M115.389 21.7239C115.935 20.9255 116.093 20.0851 116.093 19.4024V18.8036H108.067L115.389 21.7344V21.7239Z"
        fill="url(#paint2_linear_441_48184)" />
    <path style="mix-blend-mode:multiply" fill-rule="evenodd" clip-rule="evenodd"
        d="M103.182 20.7364L108.015 18.7931L115.389 21.7239L103.182 20.7364Z"
        fill="url(#paint3_linear_441_48184)" />
    <path fill-rule="evenodd" clip-rule="evenodd"
        d="M113.078 14.024L80.1669 0.45205H80.1459C79.7572 0.294481 79.3475 0.220947 78.9168 0.220947C77.9294 0.220947 77.1205 0.525579 76.5008 1.11384C75.902 1.69159 75.5869 2.45843 75.5659 3.39334V5.77788L108.025 18.7826L115.399 21.7134C115.946 20.915 116.103 20.0746 116.103 19.3918V18.1838C116.103 16.9128 115.578 15.1585 113.088 14.024H113.078Z"
        fill="url(#paint4_linear_441_48184)" />
    <path style="mix-blend-mode:multiply" fill-rule="evenodd" clip-rule="evenodd"
        d="M75.5554 5.77783L82.0472 11.6289V8.39347L75.5554 5.77783Z"
        fill="url(#paint5_linear_441_48184)" />
    <defs>
        <linearGradient id="paint0_linear_441_48184" x1="78.8013" y1="13.1836" x2="78.8223"
            y2="19.686" gradientUnits="userSpaceOnUse">
            <stop stop-color="#C0272D" />
            <stop offset="1" stop-color="#F5303F" />
        </linearGradient>
        <linearGradient id="paint1_linear_441_48184" x1="75.5554" y1="28.0792" x2="116.093"
            y2="28.0792" gradientUnits="userSpaceOnUse">
            <stop offset="0.13" stop-color="#C0272D" />
            <stop offset="1" stop-color="#F5303F" />
        </linearGradient>
        <linearGradient id="paint2_linear_441_48184" x1="75.5554" y1="20.2637" x2="116.093"
            y2="20.2637" gradientUnits="userSpaceOnUse">
            <stop offset="0.13" stop-color="#C0272D" />
            <stop offset="1" stop-color="#F5303F" />
        </linearGradient>
        <linearGradient id="paint3_linear_441_48184" x1="103.182" y1="20.2637" x2="115.389"
            y2="20.2637" gradientUnits="userSpaceOnUse">
            <stop stop-color="#880078" />
            <stop offset="0.11" stop-color="#961E87" />
            <stop offset="0.55" stop-color="#CD95C7" />
            <stop offset="0.86" stop-color="#F1E1EF" />
            <stop offset="1" stop-color="white" />
        </linearGradient>
        <linearGradient id="paint4_linear_441_48184" x1="75.5554" y1="10.9777" x2="116.093"
            y2="10.9777" gradientUnits="userSpaceOnUse">
            <stop offset="0.13" stop-color="#C0272D" />
            <stop offset="1" stop-color="#F5303F" />
        </linearGradient>
        <linearGradient id="paint5_linear_441_48184" x1="75.5554" y1="8.70861" x2="82.0472"
            y2="8.70861" gradientUnits="userSpaceOnUse">
            <stop stop-color="white" />
            <stop offset="1" stop-color="#880078" />
        </linearGradient>
    </defs>
</svg>